<?xml version="1.0" encoding="utf-8" ?>
<svg xmlns="http://www.w3.org/2000/svg" xmlns:xlink="http://www.w3.org/1999/xlink" width="512" height="512">
	<path fill="#606C38" transform="scale(0.666667 0.666667)" d="M-0 -0L768 0L768 768L-0 768L0 -0Z"/>
	<path fill="#FEFAE0" transform="scale(0.666667 0.666667)" d="M347.542 656.652C347.643 655.416 347.454 654.039 348.375 653.182C353.932 652.44 360.051 652.935 365.667 652.941L399.355 652.971L413.342 652.953C414.81 652.951 417.105 652.637 418.5 652.945C418.789 653.008 418.992 653.273 419.237 653.438L419.345 656.843C417.774 661.13 415.733 663.545 411.521 665.583C405.799 668.352 400.873 667.156 394.936 667.954L394.752 668.339C394.174 669.983 394.531 672.687 394.525 674.444L394.572 690.762C394.624 692.999 395.45 698.55 394.619 700.469C394.179 701.485 392.466 702.858 391.519 703.425C388.386 705.301 384.494 705.82 380.985 704.758C378.504 704.007 375.605 702.266 374.31 699.938C372.902 697.403 373.462 692.489 373.441 689.627L373.347 674.281C373.339 672.514 373.704 669.82 373.155 668.203C371.737 667.529 369.234 667.836 367.624 667.751C363.965 667.558 360.541 667.258 357.093 665.877C352.4 663.997 349.535 661.362 347.542 656.652Z"/>
	<path fill="#283618" transform="scale(0.666667 0.666667)" d="M373.155 668.203C372.827 670.664 373.049 673.367 373.048 675.854L373.05 689.775C359.778 689.625 346.561 689.484 333.375 687.753C320.471 686.06 307.405 682.857 295 678.957C278.391 673.734 262.931 666.442 247.875 657.751C238.566 652.378 229.201 646.485 220.601 640.033C214.226 635.25 208.208 629.893 202.314 624.535C178.633 603.004 159.275 578.097 144.475 549.696C136.759 534.887 130.204 519.593 125.271 503.625C122.743 495.442 120.865 487.037 118.995 478.684C111.093 443.379 108.765 407.265 114.741 371.437C116.843 358.84 120.232 346.209 124.085 334.038C129.105 318.181 136.133 303.435 144.443 289.057C148.77 281.57 153.284 274.071 158.3 267.02C176.682 241.18 199.771 218.749 225.047 199.707C239.793 188.597 255.025 178.61 271.428 170.113C285.291 162.933 299.577 157.764 314.766 154.229C316.309 153.87 319.564 152.698 320.943 153.135L275.565 219.82C274.513 222.448 272.732 224.804 271.23 227.2L263.143 239.996C246.458 266.689 226.549 291.929 213.732 320.801C212.449 323.692 209.129 329.31 210.424 332.482L210.571 332.707L211.773 331.664C211.972 333.455 210.555 336.163 209.957 337.875C208.492 342.069 206.942 346.312 205.867 350.625C200.647 371.564 203.246 396.084 212.598 415.514C216.614 423.858 221.889 431.333 226.289 439.416C228.391 441.888 230.449 444.653 232.205 447.388C232.395 447.683 233.037 448.504 233.043 448.854L250.992 473.629C260.301 486.306 270.296 498.81 276.253 513.507C283.883 532.331 285.288 551.652 288.73 571.393C292.247 591.56 299.983 610.834 313.017 626.781C321.35 636.975 331.241 645.528 343.091 651.38C344.154 651.839 345.407 652.216 346.211 653.051L345.873 653.608L347.062 653.826C347.191 654.773 347.286 655.73 347.542 656.652C349.535 661.362 352.4 663.997 357.093 665.877C360.541 667.258 363.965 667.558 367.624 667.751C369.234 667.836 371.737 667.529 373.155 668.203Z"/>
	<path fill="#BC6C25" transform="scale(0.666667 0.666667)" d="M152.191 426.199C151.633 423.595 151.578 419.412 151.949 416.761L155.142 387.08C158.078 366.992 164.843 346.475 173.086 327.951C188.664 292.944 213.955 262.798 243.925 239.235C253.645 231.594 263.946 224.272 275.565 219.82C274.513 222.448 272.732 224.804 271.23 227.2L263.143 239.996C246.458 266.689 226.549 291.929 213.732 320.801C212.449 323.692 209.129 329.31 210.424 332.482L210.571 332.707C205.346 340.773 200.737 349.225 197.419 358.268C187.127 386.318 186.898 418.534 193.078 447.497L193.94 451.366L193.41 451.029C189.328 448.456 184.885 446.564 180.695 444.187C173.775 440.26 167.762 434.847 162.263 429.144C159.905 426.698 157.749 424.097 155.718 421.375C154.688 419.994 153.566 417.578 152.274 416.541L152.191 426.199Z"/>
	<path fill="#FEFAE0" transform="scale(0.666667 0.666667)" d="M210.571 332.707L211.773 331.664C211.972 333.455 210.555 336.163 209.957 337.875C208.492 342.069 206.942 346.312 205.867 350.625C200.647 371.564 203.246 396.084 212.598 415.514C216.614 423.858 221.889 431.333 226.289 439.416C228.391 441.888 230.449 444.653 232.205 447.388C232.395 447.683 233.037 448.504 233.043 448.854L250.992 473.629C260.301 486.306 270.296 498.81 276.253 513.507C283.883 532.331 285.288 551.652 288.73 571.393C292.247 591.56 299.983 610.834 313.017 626.781C321.35 636.975 331.241 645.528 343.091 651.38C344.154 651.839 345.407 652.216 346.211 653.051L345.873 653.608C338.573 653.156 331.187 650.186 324.305 647.804C307.479 641.981 291.057 635.453 275.339 627.028L262.995 619.679C258.327 616.849 253.035 613.93 248.969 610.289C246.454 609.051 244.109 606.843 241.903 605.111C231.263 596.756 221.577 587.288 212.15 577.606C206.583 571.887 200.773 566.126 196.303 559.484C180.588 538.615 170.51 514.815 163.212 489.895C157.152 469.203 153.122 447.771 152.191 426.199L152.274 416.541C153.566 417.578 154.688 419.994 155.718 421.375C157.749 424.097 159.905 426.698 162.263 429.144C167.762 434.847 173.775 440.26 180.695 444.187C184.885 446.564 189.328 448.456 193.41 451.029L193.94 451.366L193.078 447.497C186.898 418.534 187.127 386.318 197.419 358.268C200.737 349.225 205.346 340.773 210.571 332.707Z"/>
	<path fill="#EFDA74" transform="scale(0.666667 0.666667)" d="M178.057 447.73C183.768 449.386 189.209 453.199 194.761 455.475C196.684 458.755 197.79 462.494 198.926 466.104L202.767 479.054C203.438 481.509 204.552 484.012 204.646 486.562C202.965 485.841 201.269 483.287 200.015 481.871C190.759 471.423 183.532 460.604 178.057 447.73Z"/>
	<path fill="#EFDA74" transform="scale(0.666667 0.666667)" d="M164.043 483.054C166.676 484.648 169.547 485.769 172.404 486.883C176.64 488.535 181.064 489.31 185.59 489.626C191.051 490.009 197.421 489.274 202.399 491.824C203.658 492.469 205.076 493.288 205.828 494.537C207.941 498.044 208.555 503.554 209.6 507.562L212.655 517.318C208.835 514.648 204.077 513.121 199.841 511.219C185.746 504.886 171.555 497.236 164.043 483.054Z"/>
	<path fill="#EFDA74" transform="scale(0.666667 0.666667)" d="M226.289 439.416C228.391 441.888 230.449 444.653 232.205 447.388C232.395 447.683 233.037 448.504 233.043 448.854C232.81 449.175 232.444 449.434 232.344 449.818C232.24 450.216 234.19 455.352 234.376 456.373C235.051 460.069 234.837 463.927 234.202 467.613C232.94 474.935 229.719 481.51 226.946 488.322C223.686 496.332 221.416 504.364 220.588 512.996C220.355 515.422 220.255 518.053 220.541 520.471C220.85 523.093 221.475 525.539 221.409 528.207L220.966 527.395C219.625 524.557 218.859 521.441 217.913 518.459C215.728 511.564 213.739 504.786 212.228 497.706C211.981 496.548 211.118 493.907 211.274 492.771C211.365 492.101 212.172 490.8 212.487 490.152C214.721 485.554 218.18 481.684 220.976 477.443C223.063 474.279 224.858 470.885 226.04 467.278L226.26 466.591C229.116 457.86 228.524 448.179 226.289 439.416Z"/>
	<defs>
		<linearGradient id="gradient_0" gradientUnits="userSpaceOnUse" x1="233.71625" y1="517.90369" x2="213.33643" y2="609.85864">
			<stop offset="0" stop-color="#F4E275"/>
			<stop offset="1" stop-color="#F8F8DE"/>
		</linearGradient>
	</defs>
	<path fill="url(#gradient_0)" transform="scale(0.666667 0.666667)" d="M229.125 561.842L221.991 549.527C218.959 544.373 215.975 539.132 211.764 534.822C207.562 530.519 202.67 527.667 197.692 524.39C192.83 521.189 188.12 517.799 183.66 514.057C181.397 512.159 178.523 509.865 177.344 507.074L176.367 504.659C183.414 509.498 191.032 513.584 198.965 516.771L209.259 520.612C210.451 521.024 212.89 521.524 213.843 522.203C214.697 522.811 215.867 525.976 216.404 527.045L225.2 544.505L234.639 561.754L250.195 586.278C244.708 586.748 239.112 587.516 233.625 586.644C232.703 586.497 231.898 586.381 231.002 586.082L229.341 585.539C225.043 584.08 220.481 581.017 216.938 578.207C217.592 579.836 220.033 580.997 221.472 581.976C223.951 583.662 226.707 585.053 229.507 586.118C230.661 586.556 231.438 586.801 232.687 586.921C233.275 586.977 233.801 587.153 234.376 587.249C234.919 587.341 235.378 587.365 235.924 587.491C238.698 588.129 243.209 587.801 246.001 587.251L247.017 587.125L250.917 586.529C253.813 588.869 255.676 594.061 257.575 597.359L259.224 600.628C259.549 601.275 260.096 601.518 260.441 602.062L260.627 602.623L261.566 604.125L261.647 604.464C261.92 605.564 262.639 606.546 263.004 607.642C263.496 609.115 264.899 609.796 265.364 611.386C266.288 614.552 268.994 617.504 269.59 620.676C269.752 621.54 270.072 621.779 270.67 622.392L270.562 623.059C268.863 621.515 268.549 619.94 267.562 617.962C267.471 618.893 267.396 618.379 267.799 619.181C268.166 619.91 268.095 620.285 268.312 621L268.781 621.939C267.913 621.936 266.493 620.653 265.517 620.271L264.584 619.619C263.918 619.13 263.381 618.937 262.684 618.562C262.135 618.268 261.769 617.905 261.175 617.68C260.079 617.264 258.941 615.98 257.755 615.396C257.223 615.135 256.969 614.724 256.5 614.441L255.878 614.185L255.107 613.594L251.254 611.036C250.501 610.541 249.842 610.446 248.969 610.289C246.454 609.051 244.109 606.843 241.903 605.111C231.263 596.756 221.577 587.288 212.15 577.606C206.583 571.887 200.773 566.126 196.303 559.484L199.125 557.782C202.949 557.823 207.223 559.507 210.864 560.652L231.504 567.173L229.125 561.842Z"/>
	<path fill="#EFDA74" transform="scale(0.666667 0.666667)" d="M250.86 479.052C259.402 489.505 265.873 502.191 269.252 515.245C273.263 530.746 270.636 547.785 264.382 562.312C261.374 569.3 257.435 575.93 253.577 582.477L251.814 579.213L236.492 551.665L229.602 539.397C229.296 538.785 228.25 537.029 228.269 536.483C228.276 536.289 229.01 535.215 229.114 535.044C230.537 532.714 232.27 530.553 233.927 528.389C239.605 520.975 245.279 512.806 248.202 503.858C250.851 495.75 250.747 487.481 250.86 479.052Z"/>
	<path fill="#283618" transform="scale(0.666667 0.666667)" d="M448.274 152.65C452.005 153.468 455.763 154.884 459.447 155.953C470.472 159.152 481.561 162.968 491.973 167.847C510.323 176.447 527.259 187.357 543.464 199.472C571.725 220.601 597.483 245.695 616.616 275.527C622.394 284.536 627.066 294.187 631.474 303.92C646.406 336.888 655.097 372.53 656.532 408.72C657.034 421.386 656.458 434.151 655.353 446.768C654.398 457.666 653.216 468.684 650.871 479.382C644.459 508.635 633.091 538.144 617.62 563.812C613.748 570.236 609.33 576.365 604.919 582.427C585.1 609.664 561.351 632.825 532.873 650.909C505.049 668.576 472.935 681.241 440.318 686.367C425.449 688.704 410.263 689.364 395.23 689.178L394.909 688.963L394.936 667.954C400.873 667.156 405.799 668.352 411.521 665.583C415.733 663.545 417.774 661.13 419.345 656.843L419.907 653.521L421.481 653.037L421.5 652.523C424.145 651.882 426.852 650.35 429.237 649.064C440.041 643.239 450.475 634.81 457.909 625.023C468.62 610.922 475.035 595.983 478.579 578.626C479.932 572.005 480.519 565.262 481.413 558.571C483.61 542.128 486.727 526.53 493.38 511.218C499.045 498.181 507.479 486.499 515.758 475.02L536.727 444.849C540.769 438.791 545.126 432.928 548.802 426.633C553.842 418.002 557.623 408.525 560.531 398.976C565.174 383.729 567.793 364.577 564.616 348.715C564.021 345.742 563.168 342.796 562.158 339.938C561.54 338.189 560.491 336.205 560.288 334.364L560.231 333.738C560.175 333.16 560.078 332.713 559.817 332.191C558.521 329.606 558.246 326.872 557.464 324.129C556.196 319.677 554.088 315.384 551.709 311.421L508.312 244.605L499.081 230.717C497.052 227.677 494.442 224.313 493.189 220.884L448.274 152.65Z"/>
	<path fill="#BC6C25" transform="scale(0.666667 0.666667)" d="M493.189 220.884C496.278 222.099 499.443 223.221 502.373 224.79C508.173 227.896 513.699 232.168 519.144 235.875C525.977 240.526 532.775 245.337 539.017 250.774C565.123 273.513 584.32 302.18 598.009 333.827C607.744 356.334 613.334 381.558 615.344 405.966C615.623 409.356 616.392 414.245 615.729 417.561C611.727 423.647 607.064 429.144 601.492 433.867C593.025 441.045 582.932 446.344 573.226 451.64C573.669 449.286 574.757 446.929 575.389 444.591C576.775 439.46 577.714 434.177 578.408 428.911C581.243 407.382 580.209 385.231 574.403 364.265C571.365 353.296 567.202 342.837 560.231 333.738C560.175 333.16 560.078 332.713 559.817 332.191C558.521 329.606 558.246 326.872 557.464 324.129C556.196 319.677 554.088 315.384 551.709 311.421L508.312 244.605L499.081 230.717C497.052 227.677 494.442 224.313 493.189 220.884Z"/>
	<path fill="#FEFAE0" transform="scale(0.666667 0.666667)" d="M560.231 333.738C567.202 342.837 571.365 353.296 574.403 364.265C580.209 385.231 581.243 407.382 578.408 428.911C577.714 434.177 576.775 439.46 575.389 444.591C574.757 446.929 573.669 449.286 573.226 451.64C582.932 446.344 593.025 441.045 601.492 433.867C607.064 429.144 611.727 423.647 615.729 417.561C615.902 439.767 613.346 461.184 607.911 482.704C600.447 512.256 588.517 538.534 569.78 562.663C562.059 572.605 553.247 581.862 544.419 590.816C527.853 607.619 506.951 620.485 486.044 631.126C471.01 638.778 455.055 645.723 438.713 650.017L427.6 652.492C426.081 652.755 424.151 653.25 422.624 653.205C422.022 653.187 421.983 653.157 421.481 653.037L421.5 652.523C424.145 651.882 426.852 650.35 429.237 649.064C440.041 643.239 450.475 634.81 457.909 625.023C468.62 610.922 475.035 595.983 478.579 578.626C479.932 572.005 480.519 565.262 481.413 558.571C483.61 542.128 486.727 526.53 493.38 511.218C499.045 498.181 507.479 486.499 515.758 475.02L536.727 444.849C540.769 438.791 545.126 432.928 548.802 426.633C553.842 418.002 557.623 408.525 560.531 398.976C565.174 383.729 567.793 364.577 564.616 348.715C564.021 345.742 563.168 342.796 562.158 339.938C561.54 338.189 560.491 336.205 560.288 334.364L560.231 333.738Z"/>
	<path fill="#EFDA74" transform="scale(0.666667 0.666667)" d="M587.809 448.688L588.357 448.6L588.694 449.062C585.232 453.585 583.329 459.255 580.664 464.274C576.575 471.977 570.255 479.413 564.188 485.643C563.638 485.912 563.931 485.852 563.306 485.812L563.373 485.311C563.802 482.496 565.371 479.517 566.178 476.749L570.237 461.634C570.528 460.474 570.725 457.916 571.276 456.974C571.796 456.086 581.891 452.163 583.738 451.251C585.201 450.528 586.487 449.635 587.809 448.688Z"/>
	<path fill="#EFDA74" transform="scale(0.666667 0.666667)" d="M538.681 446.812C539.139 446.67 539.484 446.712 539.958 446.731L540.559 447.562L540.324 448.688C538.738 458.169 540.461 469.838 545.851 477.912C549.077 482.745 553.449 487.035 556.938 491.761C556.698 495.106 555.845 498.475 555.129 501.743C553.359 509.818 550.813 517.855 548.151 525.679C547.841 526.482 547.472 527.103 546.986 527.812L546.562 527.589C546.984 524.11 547.777 520.594 547.896 517.098C548.021 513.412 547.426 509.862 546.773 506.25C545.368 498.478 543.469 492.009 540.002 484.834C537.097 478.825 533.68 471.843 533.284 465.086C532.914 458.788 534.435 451.657 538.681 446.812Z"/>
	<path fill="#EFDA74" transform="scale(0.666667 0.666667)" d="M603.836 482.438L604.639 482.422L604.824 483C603.685 486.079 601.78 488.458 599.668 490.932C592.114 499.784 581.66 505.381 571.214 510.129C566.669 512.194 561.767 513.809 557.477 516.363L557.062 516.614L556.398 516.749L555.92 516.375C558.26 511.149 559.428 505.729 561.005 500.25C564.521 488.031 575.803 490.304 585.799 488.91C592.457 487.982 598.228 486.164 603.836 482.438Z"/>
	<path fill="#EFDA74" transform="scale(0.666667 0.666667)" d="M517.295 478.688L517.833 478.758C517.432 483.402 516.976 487.93 517.214 492.607C517.673 501.604 520.697 509.685 525.685 517.125C530.036 523.616 536.361 528.454 540.186 535.332C539.892 538.345 538.108 541.699 536.891 544.439C531.431 556.729 524.349 567.823 517.893 579.559L515.971 583.562C508.076 574.246 502.59 562.84 499.688 550.977C495.919 535.572 497.131 521.676 502.324 506.812C503.703 502.865 505.193 498.774 507.146 495.072C510.158 489.362 513.981 484.203 517.295 478.688Z"/>
	<defs>
		<linearGradient id="gradient_1" gradientUnits="userSpaceOnUse" x1="388.38602" y1="652.59644" x2="380.00195" y2="57.061565">
			<stop offset="0" stop-color="#7A3E20"/>
			<stop offset="1" stop-color="#E7A24B"/>
		</linearGradient>
	</defs>
	<path fill="url(#gradient_1)" transform="scale(0.666667 0.666667)" d="M330.565 138.299C333.289 132.691 337.71 127.103 341.274 121.97L352.187 105.562L365.604 84.025L375.999 68.8759C378.807 64.8268 381.372 60.5559 384.577 56.806L433.114 129.94L442.189 143.517C444.03 146.411 445.869 150.296 448.274 152.65L493.189 220.884C494.442 224.313 497.052 227.677 499.081 230.717L508.312 244.605L551.709 311.421C554.088 315.384 556.196 319.677 557.464 324.129C558.246 326.872 558.521 329.606 559.817 332.191C560.078 332.713 560.175 333.16 560.231 333.738L560.288 334.364C560.491 336.205 561.54 338.189 562.158 339.938C563.168 342.796 564.021 345.742 564.616 348.715C567.793 364.577 565.174 383.729 560.531 398.976C557.623 408.525 553.842 418.002 548.802 426.633C545.126 432.928 540.769 438.791 536.727 444.849L515.758 475.02C507.479 486.499 499.045 498.181 493.38 511.218C486.727 526.53 483.61 542.128 481.413 558.571C480.519 565.262 479.932 572.005 478.579 578.626C475.035 595.983 468.62 610.922 457.909 625.023C450.475 634.81 440.041 643.239 429.237 649.064C426.852 650.35 424.145 651.882 421.5 652.523L421.481 653.037L419.907 653.521L419.345 656.843L419.237 653.438C418.992 653.273 418.789 653.008 418.5 652.945C417.105 652.637 414.81 652.951 413.342 652.953L399.355 652.971L365.667 652.941C360.051 652.935 353.932 652.44 348.375 653.182C347.454 654.039 347.643 655.416 347.542 656.652C347.286 655.73 347.191 654.773 347.062 653.826L345.873 653.608L346.211 653.051C345.407 652.216 344.154 651.839 343.091 651.38C331.241 645.528 321.35 636.975 313.017 626.781C299.983 610.834 292.247 591.56 288.73 571.393C285.288 551.652 283.883 532.331 276.253 513.507C270.296 498.81 260.301 486.306 250.992 473.629L233.043 448.854C233.037 448.504 232.395 447.683 232.205 447.388C230.449 444.653 228.391 441.888 226.289 439.416C221.889 431.333 216.614 423.858 212.598 415.514C203.246 396.084 200.647 371.564 205.867 350.625C206.942 346.312 208.492 342.069 209.957 337.875C210.555 336.163 211.972 333.455 211.773 331.664L210.571 332.707L210.424 332.482C209.129 329.31 212.449 323.692 213.732 320.801C226.549 291.929 246.458 266.689 263.143 239.996L271.23 227.2C272.732 224.804 274.513 222.448 275.565 219.82L320.943 153.135C321.75 152.597 322.707 150.697 323.261 149.829C325.693 146.011 327.921 141.965 330.565 138.299Z"/>
	<path fill="#606C38" transform="scale(0.666667 0.666667)" d="M347.076 613.175L424.657 612.735C424.567 614.481 423.87 618.82 424.428 620.247L423.934 623.622L422.278 644.544C422.073 647.025 421.301 650.103 421.5 652.523L421.481 653.037L419.907 653.521L419.345 656.843L419.237 653.438C418.992 653.273 418.789 653.008 418.5 652.945C417.105 652.637 414.81 652.951 413.342 652.953L399.355 652.971L365.667 652.941C360.051 652.935 353.932 652.44 348.375 653.182C347.454 654.039 347.643 655.416 347.542 656.652C347.286 655.73 347.191 654.773 347.062 653.826L345.873 653.608L346.211 653.051C345.407 652.216 344.154 651.839 343.091 651.38L342.777 634.563C342.731 631.068 342.513 627.324 343.312 623.901L344.596 623.504L343.555 623.062L343.507 620.338L343.406 613.688L347.076 613.175Z"/>
	<path fill="#283618" transform="scale(0.666667 0.666667)" d="M347.076 613.175L424.657 612.735C424.567 614.481 423.87 618.82 424.428 620.247L423.934 623.622L344.596 623.504L343.555 623.062L343.507 620.338L343.406 613.688L347.076 613.175Z"/>
	<path fill="#FEFAE0" transform="scale(0.666667 0.666667)" d="M343.507 620.338L424.428 620.247L423.934 623.622L344.596 623.504L343.555 623.062L343.507 620.338Z"/>
	<path fill="#FEFAE0" transform="scale(0.666667 0.666667)" d="M347.076 613.175L343.688 613.125C343.499 612.938 343.193 612.819 343.122 612.562C342.989 612.093 343.146 610.87 343.154 610.336L343.246 603.591C343.412 591.519 344.193 578.846 340.796 567.131C336.076 550.853 321.472 538.95 309.859 527.478C306.131 523.795 302.645 519.785 299.298 515.757C275.279 486.855 264.061 450.019 267.631 412.689C268.768 400.794 271.679 388.14 276.506 377.177C283.222 361.927 294.066 348.075 305.861 336.399L317.701 325.483C319.688 323.691 322.073 321.908 323.668 319.752C325.865 316.783 326.619 312.297 328.062 308.862C330.369 303.37 333.064 298.095 336.245 293.055C347.164 275.756 360.68 261.681 376.8 249.182L396.63 234.128C406.436 226.027 416.53 215.849 419.712 203.122C420.508 199.938 420.674 196.512 420.982 193.248C422.178 195.898 422.81 200.357 423.144 203.236C423.655 207.645 423.796 211.992 422.964 216.375C419.219 236.098 402.886 250.899 399.937 270.981C399.383 274.755 399.205 279.09 400.257 282.788C406.125 303.4 426.581 311.372 442.875 322.156C450.977 327.519 458.739 333.878 465.488 340.873C475.387 351.132 484.838 363.735 491.127 376.583C499.648 393.989 503.681 413.526 503.319 432.84C503.17 440.769 502.053 448.442 500.412 456.196C497.711 468.96 493.131 481.241 486.456 492.47C475.569 510.787 460.017 525.608 444.839 540.297C435.773 549.072 428.166 558.785 425.555 571.453C424.485 576.645 424.5 582.01 424.476 587.286L424.657 612.735L347.076 613.175Z"/>
</svg>
